<svg width="51" height="30" viewBox="0 0 51 30" fill="none" xmlns="http://www.w3.org/2000/svg">
<path d="M14.1379 10.8956C14.1379 11.513 14.2046 12.0135 14.3214 12.3806C14.4549 12.7477 14.6217 13.1482 14.8553 13.582C14.9388 13.7155 14.9721 13.8489 14.9721 13.9657C14.9721 14.1326 14.872 14.2995 14.6551 14.4663L13.6039 15.1671C13.4537 15.2672 13.3036 15.3173 13.1701 15.3173C13.0032 15.3173 12.8364 15.2338 12.6695 15.0837C12.4359 14.8334 12.2357 14.5664 12.0689 14.2995C11.902 14.0158 11.7351 13.6988 11.5516 13.315C10.2501 14.8501 8.61496 15.6176 6.64607 15.6176C5.24449 15.6176 4.12657 15.2172 3.30898 14.4163C2.49139 13.6153 2.07425 12.5475 2.07425 11.2126C2.07425 9.79437 2.57482 8.64308 3.59263 7.77543C4.61044 6.90779 5.96197 6.47397 7.68057 6.47397C8.24788 6.47397 8.83187 6.52402 9.44923 6.60745C10.0666 6.69088 10.7006 6.82436 11.3681 6.97453V5.75649C11.3681 4.48839 11.1011 3.60406 10.5838 3.08681C10.0499 2.56956 9.14889 2.31928 7.86411 2.31928C7.28012 2.31928 6.67944 2.38602 6.06208 2.53619C5.44472 2.68636 4.84404 2.8699 4.26005 3.1035C3.99308 3.2203 3.79286 3.28704 3.67606 3.32041C3.55926 3.35378 3.47583 3.37047 3.40909 3.37047C3.17549 3.37047 3.0587 3.20361 3.0587 2.85322V2.03563C3.0587 1.76866 3.09207 1.56843 3.17549 1.45164C3.25892 1.33484 3.40909 1.21804 3.64269 1.10124C4.22668 0.800903 4.92747 0.550621 5.74506 0.350395C6.56264 0.133484 7.43029 0.0333709 8.34799 0.0333709C10.3336 0.0333709 11.7852 0.483879 12.7196 1.38489C13.6373 2.28591 14.1045 3.65412 14.1045 5.48952V10.8956H14.1379ZM7.36355 13.4318C7.91417 13.4318 8.48148 13.3317 9.08215 13.1315C9.68283 12.9312 10.2168 12.5642 10.6673 12.0636C10.9342 11.7466 11.1345 11.3962 11.2346 10.9957C11.3347 10.5953 11.4014 10.1114 11.4014 9.54409V8.8433C10.9176 8.7265 10.4003 8.62639 9.86637 8.55965C9.33243 8.49291 8.81519 8.45954 8.29794 8.45954C7.18001 8.45954 6.36242 8.67645 5.8118 9.12696C5.26118 9.57746 4.99421 10.2115 4.99421 11.0458C4.99421 11.83 5.19444 12.414 5.61157 12.8144C6.01202 13.2316 6.59602 13.4318 7.36355 13.4318ZM20.762 15.2338C20.4616 15.2338 20.2614 15.1838 20.1279 15.067C19.9945 14.9669 19.8777 14.7333 19.7775 14.4163L15.8565 1.51838C15.7563 1.18467 15.7063 0.967758 15.7063 0.850959C15.7063 0.583992 15.8398 0.433822 16.1067 0.433822H17.7419C18.0589 0.433822 18.2759 0.483879 18.3926 0.600677C18.5261 0.70079 18.6262 0.934387 18.7264 1.25141L21.5295 12.2972L24.1325 1.25141C24.2159 0.917701 24.316 0.70079 24.4495 0.600677C24.583 0.500564 24.8166 0.433822 25.1169 0.433822H26.4517C26.7688 0.433822 26.9857 0.483879 27.1192 0.600677C27.2526 0.70079 27.3694 0.934387 27.4362 1.25141L30.0725 12.4307L32.9591 1.25141C33.0592 0.917701 33.176 0.70079 33.2928 0.600677C33.4263 0.500564 33.6432 0.433822 33.9435 0.433822H35.4953C35.7622 0.433822 35.9124 0.567306 35.9124 0.850959C35.9124 0.934387 35.8957 1.01781 35.879 1.11793C35.8623 1.21804 35.829 1.35152 35.7622 1.53506L31.741 14.4329C31.6409 14.7666 31.5241 14.9836 31.3906 15.0837C31.2571 15.1838 31.0402 15.2505 30.7566 15.2505H29.3216C29.0046 15.2505 28.7877 15.2005 28.6542 15.0837C28.5207 14.9669 28.4039 14.75 28.3372 14.4163L25.7509 3.65412L23.1814 14.3996C23.098 14.7333 22.9978 14.9502 22.8644 15.067C22.7309 15.1838 22.4973 15.2338 22.1969 15.2338H20.762ZM42.2028 15.6843C41.3352 15.6843 40.4675 15.5842 39.6333 15.384C38.799 15.1838 38.1482 14.9669 37.7144 14.7166C37.4475 14.5664 37.2639 14.3996 37.1972 14.2494C37.1304 14.0992 37.0971 13.9324 37.0971 13.7822V12.9312C37.0971 12.5808 37.2305 12.414 37.4808 12.414C37.5809 12.414 37.6811 12.4307 37.7812 12.4641C37.8813 12.4974 38.0315 12.5642 38.1983 12.6309C38.7656 12.8812 39.383 13.0814 40.0337 13.2149C40.7011 13.3484 41.3519 13.4151 42.0193 13.4151C43.0705 13.4151 43.8881 13.2316 44.4554 12.8645C45.0227 12.4974 45.323 11.9635 45.323 11.2794C45.323 10.8122 45.1728 10.4284 44.8725 10.1114C44.5722 9.79437 44.0049 9.51072 43.1873 9.24375L40.7679 8.49291C39.5498 8.10914 38.6488 7.54184 38.0982 6.79099C37.5476 6.05683 37.2639 5.23924 37.2639 4.37159C37.2639 3.6708 37.4141 3.05344 37.7144 2.51951C38.0148 1.98557 38.4152 1.51838 38.9158 1.1513C39.4163 0.767532 39.9837 0.483879 40.6511 0.283653C41.3185 0.0834274 42.0193 0 42.7534 0C43.1205 0 43.5043 0.0166855 43.8714 0.0667419C44.2551 0.116798 44.6055 0.18354 44.9559 0.250282C45.2896 0.333709 45.6067 0.417137 45.907 0.51725C46.2073 0.617363 46.4409 0.717475 46.6078 0.817588C46.8414 0.951072 47.0082 1.08456 47.1083 1.23473C47.2085 1.36821 47.2585 1.55175 47.2585 1.78535V2.56956C47.2585 2.91996 47.125 3.1035 46.8748 3.1035C46.7413 3.1035 46.5244 3.03676 46.2407 2.90327C45.2896 2.46945 44.2218 2.25254 43.0371 2.25254C42.086 2.25254 41.3352 2.40271 40.8179 2.71973C40.3007 3.03676 40.0337 3.52064 40.0337 4.20474C40.0337 4.67193 40.2006 5.07239 40.5343 5.38941C40.868 5.70643 41.4853 6.02346 42.3697 6.30711L44.739 7.05796C45.9404 7.44172 46.808 7.97566 47.3253 8.65976C47.8425 9.34387 48.0928 10.1281 48.0928 10.9957C48.0928 11.7132 47.9426 12.3639 47.659 12.9312C47.3586 13.4985 46.9582 13.9991 46.4409 14.3996C45.9237 14.8167 45.3063 15.117 44.5888 15.334C43.838 15.5675 43.0538 15.6843 42.2028 15.6843Z" fill="#F5F5F5"/>
<path fill-rule="evenodd" clip-rule="evenodd" d="M45.3565 23.7931C39.8669 27.8477 31.8913 30.0001 25.0336 30.0001C15.4227 30.0001 6.76296 26.4461 0.222253 20.5394C-0.294996 20.0722 0.172197 19.4382 0.78956 19.8053C7.8642 23.9099 16.5907 26.396 25.6175 26.396C31.7077 26.396 38.3986 25.1279 44.5556 22.525C45.4733 22.1079 46.2575 23.1257 45.3565 23.7931Z" fill="#FF9900"/>
<path fill-rule="evenodd" clip-rule="evenodd" d="M47.6424 21.1904C46.9417 20.2894 43.0039 20.7565 41.2185 20.9735C40.6846 21.0402 40.6012 20.573 41.0851 20.2226C44.2219 18.0201 49.3777 18.6542 49.9784 19.3883C50.5791 20.1392 49.8116 25.295 46.8749 27.7644C46.4244 28.1482 45.9906 27.948 46.1908 27.4474C46.8582 25.7956 48.3432 22.0747 47.6424 21.1904Z" fill="#FF9900"/>
</svg>
