<svg width="120" height="120" viewBox="0 0 120 120" fill="none" xmlns="http://www.w3.org/2000/svg">
<path fill-rule="evenodd" clip-rule="evenodd" d="M22.5 16.2134C18.3579 16.2134 15 19.5712 15 23.7134V98.7134C15 102.855 18.3579 106.213 22.5 106.213H97.5C101.642 106.213 105 102.855 105 98.7134V23.7134C105 19.5712 101.642 16.2134 97.5 16.2134H22.5ZM42.6038 36.227C42.6319 41.0082 39.053 43.9543 34.8061 43.9332C30.8053 43.9121 27.3179 40.727 27.339 36.234C27.3601 32.0082 30.6999 28.6121 35.0382 28.7106C39.4397 28.809 42.6319 32.0364 42.6038 36.227ZM61.3985 50.0222H48.7986H48.7915V92.8214H62.1085V91.8229C62.1085 89.9234 62.107 88.0234 62.1055 86.1229C62.1015 81.0539 62.097 75.9794 62.123 70.9119C62.13 69.6814 62.186 68.4019 62.5025 67.2274C63.6905 62.8399 67.6355 60.0064 72.037 60.7029C74.8635 61.1454 76.7335 62.7839 77.521 65.4489C78.0065 67.1149 78.2245 68.9079 78.2455 70.6449C78.3025 75.8829 78.2945 81.1209 78.2865 86.3594C78.2835 88.2084 78.2805 90.0584 78.2805 91.9074V92.8144H91.64V91.7879C91.64 89.5279 91.639 87.2684 91.6375 85.0089C91.635 79.3614 91.632 73.7139 91.647 68.0644C91.654 65.5119 91.38 62.9949 90.754 60.5269C89.819 56.8564 87.8855 53.8189 84.7425 51.6254C82.5135 50.0643 80.0665 49.0589 77.3315 48.9464C77.02 48.9334 76.706 48.9165 76.3905 48.8994C74.992 48.8238 73.5705 48.747 72.2335 49.0167C68.4085 49.7831 65.048 51.5339 62.5095 54.6204C62.2145 54.9744 61.926 55.3339 61.4955 55.8704L61.3985 55.9919V50.0222ZM28.4082 92.8354H41.6621V50.05H28.4082V92.8354Z" fill="#0B1322"/>
</svg>
