<svg width="41" height="41" viewBox="0 0 41 41" fill="none" xmlns="http://www.w3.org/2000/svg">
<path d="M20.158 34.8556C18.0003 33.0151 16.0003 30.9974 14.1789 28.8235C11.4455 25.5589 8.19971 20.6969 8.19971 16.0639C8.19852 13.6978 8.89929 11.3846 10.2133 9.41686C11.5273 7.44917 13.3956 5.91551 15.5815 5.00999C17.7675 4.10447 20.173 3.86779 22.4935 4.3299C24.8141 4.792 26.9454 5.93213 28.6177 7.60598C29.7311 8.71445 30.6136 10.0327 31.2142 11.4845C31.8147 12.9363 32.1214 14.4928 32.1164 16.0639C32.1164 20.6969 28.8705 25.5589 26.1372 28.8235C24.3158 30.9974 22.3158 33.0151 20.158 34.8556ZM20.158 10.9389C18.7988 10.9389 17.4952 11.4789 16.5341 12.44C15.573 13.4011 15.033 14.7047 15.033 16.0639C15.033 17.4232 15.573 18.7267 16.5341 19.6879C17.4952 20.649 18.7988 21.1889 20.158 21.1889C21.5173 21.1889 22.8208 20.649 23.782 19.6879C24.7431 18.7267 25.283 17.4232 25.283 16.0639C25.283 14.7047 24.7431 13.4011 23.782 12.44C22.8208 11.4789 21.5173 10.9389 20.158 10.9389Z" fill="#D1232A"/>
</svg>
